<svg xmlns="http://www.w3.org/2000/svg" width="24" height="26.683">
    <path fill="#242526" fill-rule="evenodd" d="M16.91 13.933c-1.238-1.041-2.124-3.808-2.124-7.058 0-2.46-1.627-4.546-3.89-5.31C10.744.678 9.956 0 9 0S7.256.678 7.104 1.565c-2.263.764-3.89 2.85-3.89 5.31 0 3.249-.885 6.016-2.124 7.058A3.028 3.028 0 0 0 0 16.25c0 1.035.863 1.875 1.929 1.875h5.142C7.071 19.16 7.935 20 9 20s1.929-.84 1.929-1.875h5.143c1.065 0 1.928-.84 1.928-1.875 0-.89-.398-1.735-1.09-2.317zM1.929 16.25c0-.345.154-.673.422-.899 1.722-1.448 2.792-4.696 2.792-8.476 0-2.068 1.73-3.75 3.857-3.75 2.127 0 3.857 1.682 3.857 3.75 0 3.781 1.07 7.029 2.792 8.476.269.226.423.554.423.899H1.929z"/>
</svg>
