<svg xmlns="http://www.w3.org/2000/svg" width="17.348" height=".6cm">
    <path fill="#242526" fill-rule="evenodd" d="M12.458 17H.542A.536.536 0 0 1 0 16.469V2.656c0-.88.728-1.594 1.625-1.594H3.25V.797c0-.44.364-.797.813-.797.449 0 .812.357.812.797v.265h3.25V.797c0-.44.364-.797.812-.797.449 0 .813.357.813.797v.265h1.625c.898 0 1.625.714 1.625 1.594v13.813a.536.536 0 0 1-.542.531zM11.375 2.656H9.75v1.062H8.125V2.656h-3.25v1.062H3.25V2.656H1.625v2.125h9.75V2.656zm0 3.719h-9.75v9.031h9.75V6.375zm-2.166 3.719H3.792V8.5h5.417v1.594zm0 3.187H3.792v-1.594h5.417v1.594z"/>
</svg>
