<svg xmlns="http://www.w3.org/2000/svg" width="24" height="24" viewBox="0 0 24 24">
    <path fill="none" d="M0 0h24v24H0z"/>
    <path fill="#757575" d="M5.001 17c0-1.841 1.159-3 3-3s3 1.159 3 3h-6z"/>
    <circle cx="8.001" cy="11" r="2" fill="#757575"/>
    <path fill="#757575" d="M13.001 11h6v2h-6zM13.001 15h6v2h-6z"/>
    <path fill="#757575" d="M20.001 5h-5.185c-.414-1.162-1.514-2-2.815-2S9.6 3.838 9.186 5H4.001c-1.103 0-2 .896-2 2v12c0 1.103.897 2 2 2h16c1.103 0 2-.897 2-2V7c0-1.104-.897-2-2-2zm-8 0c.551 0 1 .449 1 1s-.449 1-1 1-1-.449-1-1 .449-1 1-1zm-8 14V7h5.185C9.6 8.162 10.7 9 12.001 9s2.401-.838 2.815-2h5.185l.001 12H4.001z"/>
</svg>
