<svg xmlns="http://www.w3.org/2000/svg" width="21.317" height="21.317">
    <path fill="#242526" fill-rule="evenodd" d="M15 9h-.585a6.46 6.46 0 0 1-1.171 2.83l.462.462a.994.994 0 0 1 0 1.414.997.997 0 0 1-1.414 0l-.462-.463A6.45 6.45 0 0 1 9 14.415V15a1 1 0 0 1-2 0v-.585a6.465 6.465 0 0 1-2.83-1.171l-.463.463a.997.997 0 0 1-1.414 0 .997.997 0 0 1 0-1.414l.463-.463A6.46 6.46 0 0 1 1.585 9H1a1 1 0 0 1 0-2h.585a6.456 6.456 0 0 1 1.171-2.829l-.464-.464A.996.996 0 0 1 2 3a.996.996 0 0 1 .999-1.001c.256 0 .512.098.708.294l.463.463A6.46 6.46 0 0 1 7 1.585V1a1 1 0 0 1 2 0v.585a6.46 6.46 0 0 1 2.83 1.171l.462-.463a.996.996 0 0 1 1.414 0A.99.99 0 0 1 14 3a.99.99 0 0 1-.294.707l-.462.463A6.46 6.46 0 0 1 14.415 7H15a1 1 0 0 1 0 2zM8 3C5.243 3 3 5.243 3 8s2.243 5 5 5 5-2.243 5-5-2.243-5-5-5zm0 8a3 3 0 1 1 0-6 3 3 0 0 1 0 6zm0-4.5c-.827 0-1.5.673-1.5 1.5S7.173 9.5 8 9.5 9.5 8.827 9.5 8 8.827 6.5 8 6.5z"/>
</svg>
